<svg width="30" height="22" viewBox="0 0 30 22" fill="none" xmlns="http://www.w3.org/2000/svg">
<path d="M1.99709 21.9682H6.65298V10.6599L0 5.66431V19.9711C0 21.0783 0.896176 21.9682 1.99709 21.9682Z" fill="#22AD73"/>
<path d="M22.6284 21.9682H27.2843C28.3852 21.9682 29.2814 21.072 29.2814 19.9711V5.66431L22.6284 10.6536V21.9682Z" fill="#22AD73"/>
<path d="M22.6284 2.00406V10.6536L29.2814 5.66426V2.99975C29.2814 0.534263 26.4648 -0.877201 24.4911 0.604607L22.6284 2.00406Z" fill="#22AD73"/>
<path d="M6.65332 10.6599V2.00415L14.6411 7.99543L22.6289 2.00415V10.6599L14.6411 16.6449L6.65332 10.6599Z" fill="#22AD73"/>
<path d="M0 3.00536V5.66987L6.65298 10.6592V2.00396L4.79028 0.610222C2.81664 -0.871586 0 0.539877 0 3.00536Z" fill="#22AD73"/>
</svg>
