<svg width="30" height="30" viewBox="0 0 30 30" fill="none" xmlns="http://www.w3.org/2000/svg">
<path d="M20.5583 0H8.72307C3.91315 0 0 3.91315 0 8.72307V20.5583C0 25.3682 3.91315 29.2813 8.72307 29.2813H20.5583C25.3682 29.2813 29.2813 25.3682 29.2813 20.5583V8.72307C29.2813 3.91315 25.3681 0 20.5583 0ZM26.3356 20.5583C26.3356 23.749 23.749 26.3356 20.5583 26.3356H8.72307C5.53235 26.3356 2.9457 23.749 2.9457 20.5583V8.72307C2.9457 5.53229 5.53235 2.9457 8.72307 2.9457H20.5583C23.749 2.9457 26.3356 5.53229 26.3356 8.72307V20.5583Z" fill="#22AD73"/>
<path d="M14.6406 7.06738C10.4647 7.06738 7.06738 10.4647 7.06738 14.6405C7.06738 18.8163 10.4647 22.2137 14.6406 22.2137C18.8164 22.2137 22.2138 18.8164 22.2138 14.6405C22.2138 10.4647 18.8164 7.06738 14.6406 7.06738ZM14.6406 19.2681C12.0849 19.2681 10.0131 17.1963 10.0131 14.6406C10.0131 12.0849 12.0849 10.0131 14.6406 10.0131C17.1963 10.0131 19.2681 12.0849 19.2681 14.6406C19.2681 17.1962 17.1962 19.2681 14.6406 19.2681Z" fill="#22AD73"/>
<path d="M22.2288 8.93896C23.231 8.93896 24.0434 8.12649 24.0434 7.12426C24.0434 6.12204 23.231 5.30957 22.2288 5.30957C21.2265 5.30957 20.4141 6.12204 20.4141 7.12426C20.4141 8.12649 21.2265 8.93896 22.2288 8.93896Z" fill="#22AD73"/>
</svg>
