<svg width="29" height="24" viewBox="0 0 29 24" fill="none" xmlns="http://www.w3.org/2000/svg">
<path d="M29 2.84108C27.9331 3.32455 26.7841 3.64685 25.5824 3.79607C26.8134 3.04402 27.7514 1.85625 28.1969 0.44765C27.0479 1.13405 25.7758 1.64138 24.4217 1.90997C23.3372 0.734146 21.7896 0 20.0778 0C16.7892 0 14.1278 2.70977 14.1278 6.05819C14.1278 6.53569 14.1805 6.99528 14.2802 7.43696C9.33839 7.18627 4.95351 4.77493 2.01658 1.11017C1.50657 2.00547 1.21346 3.04402 1.21346 4.15419C1.21346 6.25516 2.26279 8.11142 3.85729 9.19771C2.88417 9.16787 1.96382 8.89331 1.1607 8.43969C1.1607 8.46357 1.1607 8.48744 1.1607 8.51728C1.1607 11.4539 3.21245 13.901 5.93248 14.4561C5.4342 14.5934 4.90661 14.671 4.36729 14.671C3.98625 14.671 3.61108 14.6352 3.24762 14.5635C4.00384 16.9689 6.20214 18.7237 8.80493 18.7715C6.77077 20.3949 4.20315 21.3619 1.41864 21.3619C0.937942 21.3619 0.463109 21.332 0 21.2783C2.6321 22.9973 5.76248 24 9.12149 24C20.0661 24 26.0513 14.7724 26.0513 6.7625C26.0513 6.49988 26.0455 6.23725 26.0338 5.9806C27.1945 5.12111 28.2027 4.05272 29 2.84108Z" fill="#22AD73"/>
</svg>
