<svg width="49" height="58" viewBox="0 0 49 58" fill="none" xmlns="http://www.w3.org/2000/svg">
<path d="M23.2105 58V48.757C10.29 48.0894 0 37.4086 0 24.3913C0 10.9376 10.9863 0 24.5 0C38.0137 0 49 10.9376 49 24.3913C49 37.1005 40.1284 49.8867 26.8984 56.2284L23.2105 58ZM24.5 5.13502C13.8232 5.13502 5.15789 13.7618 5.15789 24.3913C5.15789 35.0208 13.8232 43.6476 24.5 43.6476H28.3684V49.5529C37.7558 43.6476 43.8421 33.9425 43.8421 24.3913C43.8421 13.7618 35.1768 5.13502 24.5 5.13502ZM21.9211 34.6614H27.0789V39.7964H21.9211V34.6614ZM27.0789 30.8101H21.9211C21.9211 22.4657 29.6579 23.1076 29.6579 17.9726C29.6579 15.1483 27.3368 12.8375 24.5 12.8375C21.6632 12.8375 19.3421 15.1483 19.3421 17.9726H14.1842C14.1842 12.2984 18.8005 7.70252 24.5 7.70252C30.1995 7.70252 34.8158 12.2984 34.8158 17.9726C34.8158 24.3913 27.0789 25.0332 27.0789 30.8101Z" fill="white"/>
</svg>
