<svg width="20" height="21" viewBox="0 0 20 21" fill="none" xmlns="http://www.w3.org/2000/svg">
<path d="M10.3 1.00004C9.33 1.03004 8.58 1.84004 8.61 2.80004C8.62 3.04004 8.67 3.27004 8.77 3.50004L9.06 4.14004C9.1 4.27004 9.03 4.41004 8.89 4.45004C8.8 4.50004 8.7 4.45004 8.63 4.37004L8.21 3.82004C7.88 3.40004 7.38 3.14004 6.85 3.13004C5.88 3.11004 5.08 3.88004 5.06 4.84004C5.05 5.26004 5.19 5.66004 5.45 6.00004L5.87 6.50004H5.88C5.96 6.63004 5.93 6.79004 5.82 6.87004C5.73 6.94004 5.61 6.94004 5.53 6.87004L5 6.45004C4.66 6.19004 4.25 6.05004 3.84 6.06004C2.88 6.08004 2.11 6.88004 2.13 7.85004C2.14 8.38004 2.4 8.88004 2.82 9.21004L3.39 9.65004C3.5 9.75004 3.5 9.91004 3.38 10C3.34709 10.0341 3.30446 10.0573 3.25792 10.0662C3.21138 10.0752 3.16321 10.0695 3.12 10.05H3.11L2.5 9.77004C2.27 9.68004 2.04 9.62004 1.8 9.61004C0.84 9.58004 0.03 10.34 0 11.31C0 12.03 0.4 12.69 1.06 12.97L12.45 18.04L17.04 13.45L11.97 2.06004C11.69 1.39004 11 0.970043 10.3 1.00004ZM11.13 5.10004C11.55 5.09004 11.93 5.33004 12.09 5.71004L15.14 12.55L11.19 8.61004L10.26 6.50004C9.96 5.87004 10.42 5.12004 11.13 5.10004M7.85 7.85004C8.12 7.85004 8.37 7.95004 8.56 8.15004L13.37 12.96C13.77 13.34 13.78 13.97 13.4 14.37C13 14.77 12.38 14.78 11.96 14.37L7.15 9.56004C7.05489 9.46948 6.97881 9.36085 6.92622 9.24052C6.87363 9.12018 6.84558 8.99056 6.84371 8.85924C6.84185 8.72793 6.86621 8.59757 6.91537 8.47579C6.96453 8.35401 7.0375 8.24326 7.13 8.15004C7.32 7.95004 7.58 7.85004 7.85 7.85004M5.13 11.17C5.26 11.17 5.4 11.21 5.5 11.26L7.63 12.2L11.57 16.14L4.71 13.09C3.69 12.65 4.03 11.14 5.13 11.17M18.28 15.04L14.04 19.28L14.89 20.13C15.65 20.88 16.75 21.17 17.78 20.9C18.2872 20.7615 18.7495 20.493 19.1212 20.1213C19.493 19.7495 19.7614 19.2872 19.9 18.78C20.17 17.75 19.88 16.65 19.13 15.89L18.28 15.04V15.04Z" fill="black"/>
</svg>
