<svg width="30" height="30" viewBox="0 0 30 30" fill="none" xmlns="http://www.w3.org/2000/svg">
<path d="M28.3184 9.37269C28.1025 7.81069 27.3298 6.3792 26.1425 5.34154C24.9551 4.30389 23.4331 3.72987 21.8562 3.7251C21.4047 3.72317 20.9542 3.76867 20.5122 3.86085C19.9539 2.832 19.1281 1.97294 18.1222 1.37432C17.1162 0.775698 15.9673 0.459717 14.7967 0.459717C13.6261 0.459717 12.4772 0.775698 11.4713 1.37432C10.4653 1.97294 9.63961 2.832 9.08126 3.86085C8.63924 3.76867 8.18876 3.72317 7.73724 3.7251C6.1604 3.72987 4.63831 4.30389 3.451 5.34154C2.26368 6.3792 1.491 7.81069 1.27509 9.37269C0.963991 9.70032 0.739114 10.1001 0.620638 10.5361C0.502163 10.9721 0.493796 11.4306 0.59629 11.8707L4.32967 27.7002C4.46552 28.2962 4.80046 28.8282 5.27926 29.2082C5.75805 29.5883 6.3521 29.7938 6.96341 29.7909H22.63C23.2414 29.7938 23.8354 29.5883 24.3142 29.2082C24.793 28.8282 25.1279 28.2962 25.2638 27.7002L28.9972 11.8707C29.0997 11.4306 29.0913 10.9721 28.9728 10.5361C28.8543 10.1001 28.6295 9.70032 28.3184 9.37269V9.37269ZM7.73724 6.98332C8.26815 6.9787 8.79147 7.10953 9.25774 7.36345C9.47972 7.48269 9.72633 7.54882 9.97819 7.55663C10.23 7.56444 10.4803 7.51372 10.7092 7.40846C10.9382 7.3032 11.1396 7.14627 11.2976 6.95001C11.4556 6.75374 11.566 6.5235 11.62 6.27737C11.784 5.55752 12.1877 4.91473 12.7648 4.45431C13.342 3.99389 14.0584 3.74314 14.7967 3.74314C15.535 3.74314 16.2515 3.99389 16.8286 4.45431C17.4058 4.91473 17.8094 5.55752 17.9735 6.27737C18.0275 6.5235 18.1378 6.75374 18.2959 6.95001C18.4539 7.14627 18.6553 7.3032 18.8842 7.40846C19.1132 7.51372 19.3634 7.56444 19.6153 7.55663C19.8671 7.54882 20.1137 7.48269 20.3357 7.36345C20.802 7.10953 21.3253 6.9787 21.8562 6.98332C22.4775 6.98586 23.0853 7.16449 23.6091 7.4985C24.133 7.8325 24.5514 8.30819 24.8158 8.87038L20.3086 10.1465L15.8013 8.34092C15.1565 8.0826 14.4369 8.0826 13.7921 8.34092L9.28489 10.1465L4.77768 8.87038C5.0421 8.30819 5.4605 7.8325 5.98433 7.4985C6.50817 7.16449 7.11598 6.98586 7.73724 6.98332V6.98332ZM11.1448 12.916L14.7967 11.4498L18.4487 12.916L16.6295 26.5327H12.964L11.1448 12.916ZM3.99028 12.0336L7.88657 13.1468L9.6786 26.5327H7.39784L3.99028 12.0336ZM22.1956 26.5327H19.9149L21.7069 13.1468L25.6032 12.0336L22.1956 26.5327Z" fill="black"/>
</svg>
