<svg width="23" height="23" viewBox="0 0 23 23" fill="none" xmlns="http://www.w3.org/2000/svg">
<path d="M6.33789 9.24756V11.2476C6.33789 11.9146 6.73789 13.2476 8.33789 13.2476C9.93789 13.2476 10.3379 11.9146 10.3379 11.2476V9.24756M13.3379 9.24756L14.8379 11.2476M16.3379 13.2476L14.8379 11.2476M14.8379 11.2476L16.3379 9.24756M14.8379 11.2476L13.3379 13.2476" stroke="black" stroke-width="2" stroke-linecap="round" stroke-linejoin="round"/>
<path d="M11.3379 21.2476C16.8607 21.2476 21.3379 16.7704 21.3379 11.2476C21.3379 5.72471 16.8607 1.24756 11.3379 1.24756C5.81504 1.24756 1.33789 5.72471 1.33789 11.2476C1.33789 16.7704 5.81504 21.2476 11.3379 21.2476Z" stroke="black" stroke-width="2" stroke-linecap="round" stroke-linejoin="round"/>
</svg>
